<?xml version="1.0" standalone="no"?>
<!DOCTYPE svg PUBLIC "-//W3C//DTD SVG 20010904//EN"
 "http://www.w3.org/TR/2001/REC-SVG-20010904/DTD/svg10.dtd">
<svg version="1.0" xmlns="http://www.w3.org/2000/svg"
 width="3035.000000pt" height="2150.000000pt" viewBox="0 0 3035.000000 2150.000000"
 preserveAspectRatio="xMidYMid meet">

<g transform="translate(0.000000,2150.000000) scale(0.100000,-0.100000)"
fill="#000000" stroke="none">
<path d="M15197 20598 c-9 -95 -29 -285 -44 -421 l-26 -249 -52 -33 c-69 -44
-102 -79 -131 -140 -57 -119 -15 -253 107 -347 16 -12 14 -38 -22 -331 l-39
-319 -70 -65 c-53 -49 -79 -83 -107 -139 -70 -143 -55 -306 41 -438 l42 -59
-27 -173 c-31 -198 -55 -285 -109 -399 -77 -161 -179 -293 -367 -476 -272
-264 -531 -450 -1348 -969 -1153 -732 -1634 -1089 -2126 -1580 -205 -205 -291
-302 -430 -487 -451 -602 -743 -1391 -776 -2099 l-6 -132 54 -15 c429 -124
872 -213 1299 -261 182 -21 2063 -176 2132 -176 13 0 16 40 21 258 12 526 89
1006 227 1407 57 165 100 249 179 347 134 166 348 337 876 703 165 115 339
237 387 272 209 154 354 365 420 612 l22 84 22 -86 c43 -159 109 -290 214
-420 88 -110 131 -143 635 -492 398 -276 556 -397 698 -535 188 -182 230 -247
311 -480 143 -409 235 -1009 236 -1527 0 -129 2 -143 18 -143 68 0 1957 156
2127 176 410 47 887 141 1249 246 l109 31 -7 121 c-19 330 -87 671 -198 1001
-218 649 -587 1209 -1126 1712 -484 450 -938 782 -1932 1413 -228 145 -498
318 -600 385 -677 447 -1024 768 -1185 1098 -65 133 -86 208 -120 424 l-25
162 40 53 c131 173 115 399 -40 559 -30 31 -63 61 -73 66 -20 11 -18 -4 -71
440 l-25 212 58 58 c86 87 111 181 75 286 -19 58 -82 129 -142 164 -26 15 -48
27 -49 28 -2 1 -21 176 -43 391 -22 214 -43 404 -46 422 l-5 32 -107 0 -108 0
-17 -172z"/>
<path d="M15663 13193 c-65 -63 -84 -93 -103 -163 -16 -61 -28 -201 -21 -243
l6 -34 72 86 c39 47 115 137 167 200 53 62 96 115 96 116 0 2 -21 15 -47 30
-27 15 -62 36 -79 46 l-32 19 -59 -57z"/>
<path d="M15843 13033 c-128 -224 -159 -311 -170 -481 l-6 -102 39 16 c102 43
252 170 344 293 41 54 135 220 129 225 -7 6 -267 156 -271 156 -2 0 -32 -48
-65 -107z"/>
<path d="M15150 13049 c-8 -6 -63 -38 -121 -72 l-107 -62 59 -80 c101 -138
121 -186 184 -445 32 -129 61 -239 65 -244 7 -7 245 120 293 157 36 27 -23
300 -97 452 -34 69 -67 115 -141 198 -53 59 -101 107 -108 106 -7 0 -19 -5
-27 -10z"/>
<path d="M14620 12741 l-255 -147 4 -45 c11 -149 148 -390 302 -535 114 -107
252 -182 311 -169 38 9 114 87 160 164 l36 62 -20 72 c-71 252 -161 500 -241
662 l-42 84 -255 -148z"/>
<path d="M15720 12321 c-281 -119 -434 -220 -537 -356 -92 -121 -123 -235
-123 -454 -1 -79 1 -146 4 -148 2 -2 19 17 37 44 129 187 348 421 501 536 75
56 241 164 341 221 58 33 62 19 5 -19 -97 -64 -337 -265 -447 -375 -305 -305
-392 -504 -395 -910 -1 -184 12 -247 105 -487 32 -84 70 -196 83 -249 14 -53
28 -99 32 -103 3 -3 4 50 1 119 -4 96 -12 152 -36 240 -17 63 -42 157 -56 209
-49 184 -56 349 -18 429 12 24 44 51 120 100 57 37 153 99 214 139 61 40 163
104 229 142 143 85 264 175 321 239 65 73 134 185 160 262 l24 70 -205 205
c-113 113 -209 205 -215 204 -5 0 -71 -26 -145 -58z"/>
<path d="M7195 10304 c-75 -146 -135 -267 -133 -269 5 -5 428 -140 1633 -520
2883 -910 4787 -1494 5375 -1649 119 -32 149 -36 255 -36 66 0 150 3 188 7
l67 6 0 363 0 362 -257 5 -258 4 -130 35 c-437 119 -1154 337 -2335 708 -310
98 -901 269 -1530 445 -660 184 -1327 379 -1873 546 -466 142 -852 259 -857
259 -5 0 -70 -120 -145 -266z"/>
<path d="M22475 10319 c-544 -168 -1163 -348 -1885 -550 -591 -165 -1129 -318
-1195 -339 -744 -240 -2202 -686 -2625 -802 l-185 -51 -262 -5 -263 -4 0 -362
0 -363 77 -7 c184 -15 294 -8 435 28 550 143 2574 764 5633 1731 1441 455
1386 438 1383 445 -2 4 -64 124 -138 268 -90 175 -140 262 -150 261 -8 0 -379
-113 -825 -250z"/>
<path d="M14720 6665 c-40 -168 -73 -311 -73 -318 0 -7 35 -75 78 -152 104
-186 236 -456 284 -580 50 -126 96 -281 171 -575 l59 -232 -20 -28 c-44 -59
-29 -148 33 -193 35 -26 104 -27 141 -2 60 39 79 136 37 195 l-22 31 42 167
c63 252 145 533 186 635 55 138 159 351 267 549 53 97 97 182 97 190 -1 7 -33
148 -74 313 l-72 300 -530 3 -530 2 -74 -305z m722 -101 c66 -46 100 -110 106
-197 4 -60 0 -82 -18 -125 -25 -59 -81 -114 -134 -133 l-36 -13 0 -631 0 -630
-35 0 -35 0 0 632 0 631 -31 7 c-43 10 -118 80 -142 134 -40 91 -18 221 51
295 69 73 193 87 274 30z"/>
<path d="M17944 3795 c5 -11 13 -33 18 -49 9 -24 12 -26 20 -12 7 13 28 16
119 16 l109 0 -2 -352 -3 -352 -25 -13 c-22 -11 -10 -13 85 -12 61 1 101 4 90
6 -45 11 -45 8 -45 374 l0 349 110 0 c91 0 110 -3 110 -15 0 -25 17 -17 28 13
5 15 13 36 18 47 7 19 7 19 -13 3 -18 -16 -47 -18 -303 -18 -256 0 -285 2
-303 18 -20 16 -20 16 -13 -3z"/>
<path d="M10490 3763 c-6 -15 -72 -183 -147 -372 -127 -321 -138 -344 -167
-357 -30 -13 -29 -13 34 -13 36 0 59 3 53 6 -22 8 -15 32 48 191 l61 153 111
-3 111 -3 64 -160 c59 -149 62 -160 46 -172 -15 -11 -3 -13 77 -13 l94 0 -30
18 c-26 16 -47 63 -177 382 -80 201 -151 366 -157 368 -6 2 -16 -9 -21 -25z
m43 -250 c26 -64 45 -118 43 -120 -2 -2 -46 -2 -98 -1 l-96 3 46 118 c24 64
48 117 52 117 3 0 27 -53 53 -117z"/>
<path d="M11525 3420 c-139 -351 -149 -373 -179 -386 -30 -13 -29 -13 34 -13
36 0 59 3 53 6 -22 8 -15 33 49 191 l62 153 110 -3 110 -3 64 -160 c59 -149
62 -160 46 -172 -15 -11 -3 -13 77 -13 86 1 92 2 69 15 -32 17 -39 32 -199
430 -71 176 -134 321 -139 323 -6 2 -76 -164 -157 -368z m221 -27 c-2 -2 -46
-2 -99 -1 l-95 3 42 105 c23 58 46 114 50 125 5 15 18 -9 56 -105 27 -68 48
-125 46 -127z"/>
<path d="M12214 3772 c-130 -62 -157 -241 -51 -340 14 -13 66 -39 117 -58 122
-46 142 -57 174 -94 54 -65 25 -173 -57 -210 -57 -26 -167 -26 -224 0 -46 20
-82 69 -84 110 0 14 -4 34 -9 45 -6 13 -9 -21 -9 -94 l-1 -113 158 4 c170 5
193 11 244 65 84 88 75 237 -19 309 -20 15 -77 43 -127 62 -160 60 -186 82
-186 160 0 83 68 142 163 142 65 0 105 -16 156 -64 18 -17 31 -24 28 -16 -3 8
-11 32 -18 52 -6 20 -19 40 -28 44 -9 3 -54 8 -101 11 -69 3 -93 0 -126 -15z"/>
<path d="M12755 3420 c-139 -351 -149 -373 -179 -386 -30 -13 -29 -13 34 -13
36 0 59 3 53 6 -22 8 -15 33 49 191 l62 153 110 -3 110 -3 64 -160 c59 -149
62 -160 46 -172 -15 -11 -3 -13 77 -13 86 1 92 2 69 15 -32 17 -39 32 -199
430 -71 176 -134 321 -139 323 -6 2 -76 -164 -157 -368z m221 -27 c-2 -2 -46
-2 -99 -1 l-95 3 42 105 c23 58 46 114 50 125 5 15 18 -9 56 -105 27 -68 48
-125 46 -127z"/>
<path d="M16040 3775 c-129 -59 -165 -217 -74 -323 27 -32 53 -48 117 -72 135
-51 157 -62 187 -97 59 -66 32 -171 -54 -212 -56 -28 -164 -28 -223 -2 -49 23
-71 53 -88 123 l-13 53 -1 -114 -1 -113 153 4 c176 4 211 15 264 85 36 48 49
108 38 175 -6 34 -18 54 -59 94 -43 43 -66 56 -146 84 -156 54 -180 76 -180
165 0 79 68 135 165 135 63 0 104 -17 153 -63 l32 -31 -16 46 c-8 26 -22 52
-30 59 -24 19 -183 22 -224 4z"/>
<path d="M16713 3773 c-28 -77 -267 -675 -279 -700 -9 -18 -29 -37 -43 -42
-21 -8 -14 -9 39 -9 36 0 59 2 53 5 -22 8 -15 32 48 191 l61 153 111 -3 110
-3 64 -159 c61 -150 64 -161 47 -173 -15 -11 -4 -13 77 -13 l94 0 -30 19 c-27
16 -45 54 -149 312 -166 414 -177 439 -187 439 -5 0 -12 -8 -16 -17z m36 -250
c24 -60 45 -114 48 -120 4 -10 -19 -13 -97 -13 -78 0 -101 3 -97 13 3 6 24 60
48 120 23 59 45 107 49 107 4 0 26 -48 49 -107z"/>
<path d="M9645 3771 c30 -13 43 -31 143 -199 l92 -153 0 -183 c0 -192 -1 -198
-45 -209 -11 -2 30 -5 90 -5 82 0 103 2 84 9 -15 6 -30 20 -33 32 -3 12 -6
102 -6 200 l0 177 106 160 c74 111 115 162 133 169 21 8 14 9 -39 9 -36 0 -59
-2 -52 -5 6 -2 12 -10 12 -16 0 -6 -39 -71 -86 -144 -70 -108 -89 -132 -99
-121 -23 26 -155 248 -155 262 0 8 6 17 13 19 6 3 -31 5 -83 6 -59 0 -87 -3
-75 -8z"/>
<path d="M10815 3771 c29 -12 42 -30 143 -198 l92 -152 0 -184 c0 -193 -1
-199 -45 -210 -11 -2 30 -5 90 -5 82 0 103 2 84 9 -35 13 -39 36 -39 240 l0
169 106 160 c74 111 115 162 133 169 21 8 15 10 -39 10 -41 0 -60 -3 -51 -8 8
-5 11 -16 7 -27 -14 -35 -168 -264 -176 -259 -12 7 -160 260 -160 272 0 6 6
14 13 16 6 3 -31 5 -83 6 -59 0 -87 -3 -75 -8z"/>
<path d="M13309 3770 c43 -10 60 -28 71 -76 11 -47 13 -624 2 -641 -4 -7 -19
-16 -32 -22 -20 -8 -8 -10 55 -10 76 0 79 0 53 15 l-28 15 0 294 c0 162 1 295
3 295 2 0 136 -141 298 -314 l294 -314 5 368 c3 203 7 371 10 374 3 3 17 9 30
15 20 8 7 10 -55 10 -58 0 -74 -3 -57 -9 12 -5 25 -15 27 -22 3 -7 4 -136 3
-287 l-3 -274 -278 297 -278 296 -77 -1 c-61 -1 -70 -3 -43 -9z"/>
<path d="M14800 3768 l25 -14 3 -334 c1 -184 0 -344 -2 -356 -3 -11 -16 -26
-28 -32 -18 -8 -1 -11 82 -10 58 0 96 2 85 5 -44 10 -45 19 -45 381 l0 344 74
-4 c83 -4 114 -20 154 -78 29 -43 32 -152 5 -190 -28 -40 -56 -59 -95 -66 -21
-4 -38 -10 -38 -15 0 -8 52 -3 113 12 49 13 103 61 118 106 16 51 7 147 -18
181 -11 15 -40 38 -64 52 -42 24 -54 25 -219 28 -150 2 -171 1 -150 -10z"/>
<path d="M15345 3773 c44 -10 45 -20 45 -372 0 -185 -4 -341 -8 -348 -4 -7
-19 -16 -32 -22 -18 -7 56 -10 243 -10 l267 -1 0 50 c0 28 -4 50 -10 50 -5 0
-10 -7 -10 -15 0 -8 -9 -24 -20 -35 -18 -18 -33 -20 -160 -20 -188 0 -180 -9
-180 190 l0 150 133 0 c90 0 137 -4 145 -12 9 -9 12 -3 12 27 0 30 -3 36 -12
27 -8 -8 -55 -12 -145 -12 l-133 0 0 165 0 165 144 0 c153 0 158 -2 171 -52
11 -42 25 -23 25 33 l0 49 -247 -1 c-137 -1 -239 -3 -228 -6z"/>
<path d="M17127 3770 c48 -11 60 -25 72 -81 11 -52 15 -587 5 -626 -3 -12 -18
-26 -33 -32 -20 -7 -9 -9 54 -10 56 0 73 3 58 9 -41 17 -43 36 -41 335 l3 286
300 -320 300 -321 3 371 2 370 33 14 c31 14 29 14 -48 14 -58 0 -74 -3 -57 -9
12 -5 25 -15 27 -22 3 -7 4 -137 3 -287 l-3 -274 -279 296 -278 297 -77 -1
c-58 -1 -68 -3 -44 -9z"/>
<path d="M18640 3767 l25 -13 0 -354 0 -354 -25 -13 c-22 -11 -11 -13 80 -12
80 0 99 3 79 10 -15 6 -30 20 -33 32 -3 12 -6 88 -6 170 l0 147 65 0 64 0 82
-121 c146 -215 205 -262 311 -245 50 8 138 46 121 53 -7 2 -21 0 -32 -6 -32
-18 -91 -13 -133 12 -42 23 -137 141 -217 269 l-42 66 54 54 c43 42 57 65 66
105 23 95 -19 175 -107 201 -24 7 -106 12 -208 12 -143 0 -165 -2 -144 -13z
m287 -30 c15 -8 36 -23 45 -34 49 -54 63 -163 28 -221 -33 -54 -74 -72 -162
-72 l-78 0 0 176 0 177 69 -6 c38 -3 82 -12 98 -20z"/>
<path d="M19473 3768 l27 -10 0 -358 0 -358 -27 -10 c-20 -8 46 -11 235 -11
l262 -1 -1 58 c-1 50 -2 53 -10 27 -15 -51 -30 -55 -185 -55 -183 0 -174 -10
-174 192 l0 148 131 0 c114 0 134 -2 145 -17 12 -16 13 -13 14 27 0 34 -3 41
-12 32 -8 -8 -55 -12 -145 -12 l-133 0 0 165 0 165 145 0 146 0 19 -42 20 -43
0 58 0 57 -242 -1 c-175 0 -235 -3 -215 -11z"/>
<path d="M19995 3775 c6 -2 22 -6 37 -9 55 -12 58 -32 58 -395 l0 -329 -27
-10 c-23 -9 -13 -10 52 -10 65 0 75 1 52 10 -15 5 -29 19 -32 31 -3 12 -4 149
-3 303 l3 282 294 -314 c162 -173 298 -314 303 -314 4 0 8 164 8 364 0 382 -1
378 45 389 11 2 -18 5 -65 4 -47 0 -75 -2 -63 -4 42 -8 43 -18 41 -310 l-3
-279 -280 298 -279 298 -76 -1 c-41 0 -70 -2 -65 -4z"/>
<path d="M5514 3415 c-4 -8 -4 -22 0 -30 5 -13 222 -15 1903 -13 l1898 3 0 25
0 25 -1898 3 c-1681 2 -1898 0 -1903 -13z"/>
<path d="M21084 3415 c-4 -8 -4 -22 0 -30 5 -13 222 -15 1903 -13 l1898 3 0
25 0 25 -1898 3 c-1681 2 -1898 0 -1903 -13z"/>
<path d="M5410 2260 c0 -5 20 -10 44 -10 86 0 136 -58 155 -180 13 -81 14
-1179 1 -1234 -10 -45 -20 -54 -72 -62 -80 -14 -31 -24 112 -24 83 0 150 4
150 9 0 5 -20 14 -45 20 -34 9 -48 18 -55 37 -6 16 -9 248 -8 610 l3 585 594
-633 c327 -348 598 -634 603 -636 4 -2 8 320 8 717 0 506 3 727 11 744 12 26
47 47 79 47 10 0 22 5 25 10 4 6 -47 10 -144 10 -94 0 -151 -4 -151 -10 0 -5
14 -10 30 -10 37 0 67 -29 75 -72 3 -18 4 -275 3 -571 l-3 -539 -564 601 -564
601 -143 0 c-89 0 -144 -4 -144 -10z"/>
<path d="M16670 2260 c0 -5 11 -10 24 -10 38 0 87 -48 116 -115 15 -33 137
-363 271 -733 183 -504 248 -672 259 -670 10 2 82 192 215 565 110 309 202
564 206 567 3 3 97 -249 210 -560 180 -501 217 -590 234 -572 3 2 115 316 250
696 134 381 253 709 264 731 24 45 74 91 102 91 10 0 19 5 19 10 0 6 -46 10
-117 10 -116 0 -124 -2 -81 -25 15 -7 22 -19 21 -34 -4 -30 -405 -1151 -412
-1151 -10 0 -415 1123 -416 1150 0 17 8 28 23 35 12 5 22 13 22 17 0 5 -81 8
-181 8 -117 0 -178 -3 -174 -10 3 -5 15 -10 25 -10 50 0 130 -120 160 -241 11
-43 8 -54 -145 -484 -86 -242 -160 -446 -164 -454 -6 -10 -11 -6 -18 15 -6 16
-99 272 -207 569 -110 301 -196 551 -194 565 2 17 10 26 26 28 12 2 22 8 22
13 0 5 -76 9 -180 9 -113 0 -180 -4 -180 -10z"/>
<path d="M7960 2071 c-5 -11 -114 -282 -241 -603 -127 -321 -243 -605 -257
-633 -20 -38 -35 -52 -59 -60 -57 -16 -36 -25 62 -25 88 0 122 11 75 23 -11 3
-20 13 -20 23 0 9 48 138 107 286 l107 268 194 -2 194 -3 104 -255 c57 -140
103 -268 104 -283 0 -21 -6 -30 -20 -34 -55 -14 -5 -23 135 -23 97 0 155 4
155 10 0 6 -9 10 -19 10 -30 0 -75 43 -99 97 -17 38 -312 766 -467 1156 -29
71 -38 79 -55 48z m53 -458 l85 -213 -173 0 -173 0 86 215 c47 118 87 214 88
212 1 -1 40 -98 87 -214z"/>
<path d="M9241 2079 c-84 -11 -158 -48 -215 -109 -61 -66 -88 -127 -94 -216
-5 -86 14 -161 60 -230 41 -60 103 -103 211 -144 234 -88 269 -105 314 -144
75 -66 100 -151 73 -248 -15 -53 -90 -131 -152 -159 -47 -21 -68 -24 -178 -24
-154 0 -213 17 -276 80 -48 48 -74 117 -74 196 0 26 -4 51 -10 54 -7 4 -10
-62 -10 -191 l0 -196 238 5 c158 3 256 10 295 20 101 25 171 89 225 204 23 49
27 71 27 148 0 78 -4 97 -28 146 -30 62 -112 146 -173 176 -21 11 -106 44
-188 73 -173 62 -230 97 -263 159 -43 82 -23 202 45 274 15 16 50 41 77 55 43
22 63 26 140 27 77 0 98 -4 148 -27 31 -15 81 -50 110 -77 30 -28 56 -51 60
-51 10 0 -54 155 -68 166 -14 10 -108 28 -195 37 -19 2 -64 0 -99 -4z"/>
<path d="M13876 2082 c-2 -4 -115 -287 -250 -628 -135 -340 -254 -630 -264
-644 -10 -14 -33 -29 -50 -35 -56 -16 -35 -25 63 -25 57 0 95 4 95 10 0 6 -7
10 -15 10 -9 0 -18 7 -22 16 -3 9 41 135 103 290 l109 274 194 -2 195 -3 93
-230 c131 -320 129 -316 104 -336 -12 -10 -21 -20 -21 -23 0 -3 68 -6 150 -6
93 0 150 4 150 10 0 6 -9 10 -20 10 -56 0 -70 29 -334 685 -140 346 -259 631
-264 633 -6 2 -13 -1 -16 -6z m48 -468 l84 -209 -165 -3 c-91 -1 -168 0 -171
2 -2 3 33 99 79 215 46 115 85 208 87 206 1 -1 40 -96 86 -211z"/>
<path d="M19582 1738 c-77 -194 -188 -474 -247 -623 -59 -148 -118 -285 -132
-303 -14 -19 -37 -35 -54 -39 -60 -12 -26 -23 71 -23 100 0 120 7 78 25 -15 7
-22 17 -20 31 2 12 49 138 106 280 l104 259 194 3 194 2 107 -267 c59 -148
108 -276 107 -286 0 -11 -9 -21 -20 -24 -55 -14 -5 -23 135 -23 97 0 155 4
155 10 0 6 -8 10 -17 10 -37 0 -79 38 -103 91 -13 30 -129 317 -259 638 -130
322 -241 586 -248 588 -7 3 -66 -133 -151 -349z m181 -110 c42 -106 79 -201
83 -210 6 -17 -6 -18 -166 -18 -96 0 -170 4 -168 9 42 112 165 411 169 411 3
0 40 -87 82 -192z"/>
<path d="M22783 2073 c-23 -64 -476 -1201 -489 -1229 -19 -40 -58 -74 -85 -74
-11 0 -19 -4 -19 -10 0 -6 40 -10 100 -10 100 0 120 7 78 25 -15 7 -22 17 -20
31 2 12 49 138 106 280 l104 259 194 3 194 2 107 -267 c59 -148 107 -276 107
-286 0 -11 -9 -21 -20 -24 -55 -14 -5 -23 135 -23 97 0 155 4 155 10 0 6 -7
10 -15 10 -26 0 -74 29 -87 53 -7 12 -125 301 -263 641 -137 341 -256 621
-262 624 -7 2 -16 -5 -20 -15z m52 -450 c42 -109 80 -204 82 -210 4 -10 -33
-13 -167 -13 -96 0 -170 4 -168 9 43 116 165 411 169 411 3 0 41 -89 84 -197z"/>
<path d="M10015 2060 c-3 -6 5 -10 18 -10 14 0 35 -9 48 -19 l24 -19 3 -574
c2 -315 0 -587 -3 -605 -8 -42 -29 -63 -66 -63 -16 0 -29 -4 -29 -10 0 -6 65
-10 175 -10 110 0 175 4 175 10 0 6 -11 10 -24 10 -13 0 -34 9 -47 19 l-24 19
0 600 c0 663 -4 627 66 638 21 4 36 10 33 15 -7 13 -341 11 -349 -1z"/>
<path d="M10756 2063 c-4 -4 14 -14 41 -23 38 -12 53 -24 75 -60 l28 -45 -80
-564 c-84 -596 -85 -601 -137 -601 -12 0 -23 -4 -23 -10 0 -6 40 -10 100 -10
95 0 129 11 75 24 -26 7 -29 17 -26 76 3 55 120 912 128 942 7 22 43 -55 239
-505 128 -293 235 -531 240 -530 4 1 111 240 238 532 126 292 231 529 233 528
2 -3 81 -553 131 -924 12 -87 7 -111 -24 -119 -59 -15 -13 -24 121 -24 80 0
145 4 145 8 0 4 -13 13 -30 19 -17 6 -34 23 -40 37 -10 27 -160 1089 -160
1134 0 44 28 80 70 93 64 19 33 30 -76 27 l-98 -3 -231 -533 c-199 -462 -231
-530 -240 -511 -5 13 -109 253 -230 534 l-220 510 -121 3 c-66 1 -123 -1 -128
-5z"/>
<path d="M14776 2061 c-4 -5 12 -12 34 -16 24 -4 44 -14 50 -25 6 -12 10 -242
10 -614 0 -583 0 -596 -20 -616 -11 -11 -31 -20 -45 -20 -14 0 -25 -4 -25 -10
0 -7 157 -10 450 -10 l450 0 0 160 c0 161 -13 215 -22 96 -7 -88 -37 -146 -91
-177 -38 -22 -55 -24 -189 -27 -181 -5 -250 8 -294 52 -18 18 -37 50 -43 71
-7 27 -11 214 -11 561 0 491 1 522 18 537 10 9 33 20 50 23 18 4 32 10 32 15
0 12 -347 12 -354 0z"/>
<path d="M20670 2061 c0 -4 15 -12 32 -17 19 -6 38 -20 45 -34 10 -19 13 -162
13 -606 0 -573 0 -582 -21 -608 -12 -15 -30 -26 -45 -26 -13 0 -24 -4 -24 -10
0 -6 63 -10 170 -10 107 0 170 4 170 10 0 6 -11 10 -25 10 -14 0 -34 9 -45 20
-19 19 -20 33 -20 315 l0 295 355 0 355 0 0 -279 c0 -324 -5 -350 -67 -351
-13 0 -23 -4 -23 -10 0 -6 63 -10 170 -10 107 0 170 4 170 10 0 6 -10 10 -23
10 -12 0 -33 7 -45 16 l-22 15 0 608 c0 663 -4 625 58 637 18 4 29 10 26 15
-7 11 -334 12 -334 1 0 -4 15 -12 32 -17 55 -17 58 -33 58 -327 l0 -268 -355
0 -355 0 2 288 3 287 43 15 c23 8 42 18 42 22 0 4 -76 8 -170 8 -93 0 -170 -4
-170 -9z"/>
<path d="M23740 2061 c0 -4 15 -12 32 -17 19 -6 38 -20 45 -34 10 -19 13 -162
13 -606 0 -573 0 -582 -21 -608 -12 -15 -30 -26 -45 -26 -13 0 -24 -4 -24 -10
0 -6 63 -10 170 -10 107 0 170 4 170 10 0 6 -11 10 -24 10 -13 0 -34 9 -47 19
l-24 19 -4 296 -3 296 361 0 361 0 0 -279 c0 -324 -5 -350 -67 -351 -13 0 -23
-4 -23 -10 0 -6 62 -10 165 -10 103 0 165 4 165 10 0 6 -8 10 -18 10 -10 0
-28 7 -40 16 l-22 15 0 608 c0 663 -4 625 58 637 71 14 12 24 -144 24 -160 0
-197 -8 -132 -26 55 -16 58 -32 58 -326 l0 -268 -360 0 -360 0 1 258 c1 141 4
270 8 287 5 23 15 33 49 45 23 9 39 19 36 23 -10 10 -334 9 -334 -2z"/>
<path d="M16020 1410 l0 -40 191 0 190 0 -3 38 -3 37 -187 3 -188 2 0 -40z"/>
</g>
</svg>
